<?xml version="1.0" standalone="no"?>
<!DOCTYPE svg PUBLIC "-//W3C//DTD SVG 20010904//EN"
 "http://www.w3.org/TR/2001/REC-SVG-20010904/DTD/svg10.dtd">
<svg version="1.0" xmlns="http://www.w3.org/2000/svg"
 width="700.000000pt" height="700.000000pt" viewBox="0 0 700.000000 700.000000"
 preserveAspectRatio="xMidYMid meet">
<metadata>
Created by potrace 1.11, written by Peter Selinger 2001-2013
</metadata>
<g transform="translate(0.000000,700.000000) scale(0.100000,-0.100000)"
fill="#000000" stroke="none">
<path d="M3339 6775 c-2 -1 -42 -6 -89 -9 -47 -3 -94 -8 -105 -10 -11 -2 -42
-7 -70 -10 -229 -31 -598 -130 -770 -207 -11 -4 -63 -27 -115 -49 -166 -72
-369 -186 -530 -298 -533 -371 -943 -876 -1190 -1467 -34 -81 -114 -306 -125
-352 -3 -10 -18 -72 -35 -138 -17 -66 -33 -135 -36 -154 -3 -18 -8 -43 -10
-55 -14 -71 -32 -217 -41 -336 -13 -166 -7 -500 11 -630 2 -14 6 -50 10 -80
11 -84 15 -107 37 -215 29 -142 87 -352 119 -430 9 -19 23 -65 25 -75 2 -16
76 -184 130 -295 91 -189 276 -485 363 -581 9 -11 42 -51 73 -89 101 -126 269
-289 409 -395 25 -19 50 -39 55 -43 85 -71 323 -220 486 -304 211 -110 533
-228 755 -278 280 -62 498 -87 758 -87 135 0 310 8 354 17 11 2 51 6 88 10 73
6 334 57 424 81 583 160 1097 458 1515 879 72 71 175 185 218 240 9 11 36 45
60 75 147 184 332 500 431 738 135 320 226 699 252 1042 13 168 6 602 -11 630
-1 3 -6 37 -10 75 -5 56 -33 209 -60 340 -26 121 -125 408 -202 585 -140 321
-416 725 -653 955 -108 105 -109 106 -190 170 -41 33 -77 62 -80 65 -11 12
-179 128 -245 170 -38 24 -81 50 -95 59 -62 39 -249 134 -360 184 -228 102
-546 195 -790 232 -25 4 -52 9 -60 10 -8 2 -44 6 -80 10 -36 4 -74 9 -85 12
-23 6 -531 14 -536 8z m491 -339 c25 -3 59 -8 75 -11 17 -2 53 -7 80 -11 67
-8 280 -57 385 -89 771 -231 1426 -781 1790 -1504 114 -227 217 -519 254 -721
2 -14 7 -36 10 -50 7 -29 13 -65 22 -129 3 -25 8 -57 10 -71 24 -152 24 -612
0 -735 -2 -11 -7 -42 -10 -70 -13 -91 -56 -292 -82 -377 -14 -46 -27 -90 -29
-98 -17 -75 -118 -317 -189 -454 -218 -419 -547 -794 -936 -1068 -294 -207
-749 -407 -1050 -462 -14 -2 -36 -7 -50 -10 -14 -3 -38 -8 -55 -11 -16 -3 -39
-8 -50 -10 -121 -23 -320 -39 -495 -39 -228 0 -450 24 -650 71 -36 8 -69 16
-75 17 -179 41 -460 150 -653 252 -59 31 -117 62 -129 68 -13 6 -23 14 -23 19
0 4 -5 7 -11 7 -17 0 -222 142 -329 229 -96 77 -329 303 -387 376 -121 150
-151 190 -207 275 -76 114 -129 206 -185 320 -24 47 -47 93 -52 102 -41 78
-154 399 -174 495 -2 10 -10 47 -19 83 -15 64 -40 207 -51 285 -26 193 -26
550 0 730 3 17 7 48 10 70 3 22 10 67 16 100 6 33 13 71 15 85 3 14 16 68 30
120 14 52 27 102 29 110 2 8 22 67 44 131 98 283 239 549 421 794 40 55 76
102 79 105 3 3 33 37 66 75 330 385 791 693 1290 862 153 51 369 104 485 118
30 4 57 8 60 10 3 2 44 7 90 10 47 4 87 9 90 12 6 6 487 -4 540 -11z"/>
<path d="M5213 5571 c-29 -11 -65 -28 -80 -40 -16 -11 -131 -123 -257 -249
l-229 -230 -85 56 c-199 130 -495 249 -687 276 -39 6 -65 11 -115 22 -14 3
-108 7 -210 9 -256 5 -419 -19 -655 -97 -285 -93 -545 -256 -765 -479 -101
-102 -108 -110 -187 -219 -204 -282 -318 -579 -360 -935 -14 -119 -8 -394 11
-491 3 -12 7 -39 10 -60 32 -200 137 -474 253 -661 113 -181 261 -353 406
-470 40 -32 74 -60 77 -63 30 -32 210 -141 329 -200 144 -71 365 -142 506
-164 155 -23 189 -26 315 -28 158 -1 261 9 445 46 150 30 375 117 532 207 272
156 473 344 648 604 288 428 391 936 294 1450 -43 224 -155 500 -279 688 l-52
79 236 236 c130 131 243 247 251 259 49 71 61 199 26 279 -12 26 -33 63 -47
81 -69 91 -221 134 -331 94z m-1581 -475 c309 -19 632 -145 883 -344 192 -152
341 -340 449 -562 118 -246 166 -463 160 -734 -1 -83 -5 -162 -7 -176 -3 -14
-8 -45 -12 -70 -15 -108 -72 -288 -126 -405 -162 -350 -453 -638 -804 -797
-122 -55 -304 -110 -405 -122 -25 -3 -70 -9 -100 -13 -69 -8 -257 -8 -330 0
-218 26 -350 66 -555 168 -462 229 -778 654 -871 1172 -10 52 -18 157 -19 242
-6 336 69 601 258 910 40 65 133 180 202 250 106 106 143 137 253 211 239 160
515 255 792 271 58 3 107 7 108 9 2 1 9 1 15 -1 7 -2 55 -6 109 -9z"/>
<path d="M3369 4836 c-2 -2 -27 -6 -56 -10 -28 -3 -57 -8 -65 -10 -7 -3 -26
-7 -43 -10 -57 -8 -200 -58 -285 -99 -257 -125 -466 -325 -602 -577 -58 -108
-116 -272 -133 -380 -3 -19 -10 -60 -15 -90 -8 -52 -7 -297 3 -350 21 -118 33
-164 63 -251 66 -190 166 -349 309 -494 78 -79 151 -145 160 -145 1 0 31 -20
67 -43 153 -103 351 -177 548 -206 106 -16 361 -6 464 18 212 49 391 136 556
269 263 211 440 522 487 852 16 112 9 360 -13 459 -59 266 -179 486 -369 676
-110 110 -205 179 -340 249 -92 48 -268 109 -340 120 -22 3 -51 8 -65 12 -27
6 -325 15 -331 10z"/>
</g>
</svg>
